<?xml version="1.0" encoding="utf-8"?>
<!-- Generator: Adobe Illustrator 25.0.0, SVG Export Plug-In . SVG Version: 6.00 Build 0)  -->
<svg version="1.1" id="Calque_1" xmlns="http://www.w3.org/2000/svg" xmlns:xlink="http://www.w3.org/1999/xlink" x="0px" y="0px"
	 viewBox="0 0 600 600" style="enable-background:new 0 0 600 600;" xml:space="preserve">
<style type="text/css">
	.st0{fill:#E6CECB;}
	.st1{fill:#FFFFFF;}
</style>
<circle id="background" class="st0" cx="300" cy="300" r="300"/>
<path id="behance" class="st1" d="M211.9,164.1c12.9,0,24.7,1.2,35.4,3.4s19.8,6,27.4,11.2c7.6,5.2,13.5,12.1,17.7,20.8
	c4.2,8.6,6.3,19.3,6.3,32c0,13.7-3.1,25.1-9.3,34.3s-15.4,16.6-27.6,22.5c16.8,4.8,29.3,13.3,37.5,25.3c8.3,12,12.4,26.6,12.4,43.6
	c0,13.7-2.7,25.6-8,35.6c-5.3,10-12.5,18.2-21.5,24.6c-9,6.4-19.3,11-30.8,14.1c-11.6,3-23.6,4.6-35.6,4.6H84V164.1H211.9z
	 M204.3,274.1c10.7,0,19.4-2.5,26.3-7.6c6.9-5.1,10.3-13.3,10.3-24.7c0-6.3-1.2-11.5-3.4-15.6c-2.3-4.1-5.3-7.2-9.1-9.5
	c-3.8-2.3-8.2-3.9-13.1-4.8c-5.1-0.9-10.2-1.3-15.4-1.3h-55.9v63.6L204.3,274.1L204.3,274.1z M207.8,389.5c5.6,0,11.3-0.6,16.8-1.7
	c5.3-1.2,10-3,14.1-5.7c4.1-2.7,7.3-6.3,9.7-10.8c2.4-4.6,3.6-10.4,3.6-17.5c0-13.9-3.9-23.9-11.8-29.9c-7.9-6-18.3-9-31.2-9h-65.1
	v74.6L207.8,389.5L207.8,389.5z M387,383.8c8.1,7.9,19.8,11.8,35,11.8c10.9,0,20.3-2.7,28.2-8.2c7.9-5.4,12.7-11.2,14.5-17.3h47.6
	c-7.6,23.6-19.3,40.5-35,50.6c-15.7,10.2-34.8,15.2-57.1,15.2c-15.5,0-29.4-2.5-41.9-7.4c-12.4-4.9-23-12-31.6-21.1
	c-8.6-9.1-15.3-20-20-32.7c-4.7-12.7-7-26.7-7-41.9c0-14.7,2.4-28.4,7.2-41.1c4.8-12.7,11.7-23.7,20.6-32.9
	c8.9-9.3,19.5-16.6,31.8-21.9s26-8,40.9-8c16.8,0,31.3,3.2,43.8,9.7c12.4,6.5,22.7,15.2,30.6,26.1c8,10.9,13.8,23.4,17.3,37.3
	s4.8,28.6,3.8,43.8h-142C374.4,363.2,378.8,375.9,387,383.8L387,383.8z M448.1,280.2c-6.5-7.1-16.3-10.7-29.5-10.7
	c-8.6,0-15.8,1.5-21.5,4.4c-5.7,2.9-10.3,6.5-13.7,10.8c-3.4,4.3-5.8,8.9-7.2,13.7c-1.4,4.8-2.2,9.1-2.5,12.9h88
	C459,297.7,454.5,287.3,448.1,280.2L448.1,280.2z M364.4,177.9h109.9v30.5H364.4V177.9z"/>
</svg>
