<?xml version="1.0" encoding="utf-8"?>
<!-- Generator: Adobe Illustrator 25.0.0, SVG Export Plug-In . SVG Version: 6.00 Build 0)  -->
<svg version="1.1" id="Layer_1" xmlns="http://www.w3.org/2000/svg" xmlns:xlink="http://www.w3.org/1999/xlink" x="0px" y="0px"
	 viewBox="0 0 510 510" style="enable-background:new 0 0 510 510;" xml:space="preserve">
<style type="text/css">
	.st0{fill:#E6CECB;}
	.st1{fill:#FFFFFF;}
</style>
<g>
	<path class="st0" d="M369.3,0H140.7C63.1,0,0,63.1,0,140.7v228.5C0,446.9,63.1,510,140.7,510h228.5c77.6,0,140.7-63.1,140.7-140.7
		V140.7C510,63.1,446.9,0,369.3,0z"/>
	<path class="st1" d="M255,123.6c-72.5,0-131.4,59-131.4,131.4c0,72.5,59,131.4,131.4,131.4S386.4,327.5,386.4,255
		C386.4,182.5,327.5,123.6,255,123.6z M255,341.2c-47.5,0-86.2-38.6-86.2-86.2c0-47.5,38.7-86.2,86.2-86.2s86.2,38.7,86.2,86.2
		C341.2,302.5,302.5,341.2,255,341.2z"/>
	<path class="st1" d="M391.9,85.2c-8.7,0-17.3,3.5-23.4,9.7c-6.2,6.2-9.7,14.7-9.7,23.5c0,8.7,3.6,17.3,9.7,23.5
		c6.2,6.2,14.7,9.7,23.4,9.7c8.7,0,17.3-3.6,23.5-9.7c6.2-6.2,9.7-14.8,9.7-23.5c0-8.7-3.5-17.3-9.7-23.5
		C409.2,88.8,400.7,85.2,391.9,85.2z"/>
</g>
</svg>
