<?xml version="1.0" encoding="utf-8"?>
<!-- Generator: Adobe Illustrator 25.0.0, SVG Export Plug-In . SVG Version: 6.00 Build 0)  -->
<svg version="1.1" id="Layer_1" xmlns="http://www.w3.org/2000/svg" xmlns:xlink="http://www.w3.org/1999/xlink" x="0px" y="0px"
	 viewBox="0 0 510 510" style="enable-background:new 0 0 510 510;" xml:space="preserve">
<style type="text/css">
	.st0{fill:#E6CECB;}
</style>
<g>
	<path class="st0" d="M2,254.5c0,103.4,62.2,192.2,151.1,231.3c-0.7-17.6-0.1-38.8,4.4-58c4.9-20.5,32.5-137.6,32.5-137.6
		s-8.1-16.1-8.1-39.9c0-37.4,21.7-65.4,48.7-65.4c23,0,34.1,17.3,34.1,37.9c0,23.1-14.7,57.6-22.3,89.6
		c-6.3,26.8,13.4,48.6,39.9,48.6c47.8,0,80.1-61.4,80.1-134.2c0-55.3-37.3-96.8-105.1-96.8C180.7,130,133,187.1,133,250.9
		c0,22,6.5,37.5,16.6,49.5c4.7,5.5,5.3,7.7,3.6,14.1c-1.2,4.6-4,15.8-5.1,20.3c-1.7,6.4-6.9,8.7-12.6,6.3
		c-35.3-14.4-51.7-53-51.7-96.5c0-71.7,60.5-157.7,180.5-157.7c96.4,0,159.8,69.8,159.8,144.6c0,99.1-55.1,173-136.2,173
		c-27.3,0-52.9-14.7-61.7-31.5c0,0-14.7,58.2-17.8,69.4c-5.4,19.5-15.8,38.9-25.4,54.1c22.7,6.7,46.7,10.4,71.6,10.4
		C393.9,507,507,394,507,254.5C507,115,393.9,2,254.5,2C115.1,2,2,115,2,254.5z"/>
</g>
</svg>
