<?xml version="1.0" standalone="no"?>
<!DOCTYPE svg PUBLIC "-//W3C//DTD SVG 20010904//EN"
 "http://www.w3.org/TR/2001/REC-SVG-20010904/DTD/svg10.dtd">
<svg version="1.0" xmlns="http://www.w3.org/2000/svg"
 width="558.000000pt" height="558.000000pt" viewBox="0 0 558.000000 558.000000"
 preserveAspectRatio="xMidYMid meet">
<metadata>
Created by potrace 1.11, written by Peter Selinger 2001-2013
</metadata>
<g transform="translate(0.000000,558.000000) scale(0.100000,-0.100000)"
fill="#000000" stroke="none">
<path d="M1119 3808 c-52 -16 -69 -26 -79 -47 -14 -30 -161 -411 -165 -426 -1
-5 -6 -19 -10 -30 -43 -104 -95 -249 -95 -264 0 -19 34 -31 85 -31 18 0 39 25
50 60 1 3 7 19 14 35 7 17 22 54 33 82 28 75 38 80 165 77 59 -2 114 -4 120
-5 7 -1 34 -56 59 -122 26 -65 53 -121 61 -124 22 -8 114 -10 143 -3 32 9 32
8 -45 204 -34 88 -95 244 -135 346 -90 233 -107 270 -123 269 -6 -1 -42 -10
-78 -21z m30 -300 c13 -29 29 -67 37 -85 8 -18 12 -43 9 -56 -6 -21 -11 -23
-73 -21 -37 1 -73 2 -79 3 -19 2 -16 33 7 93 35 89 50 118 64 118 7 0 23 -24
35 -52z"/>
<path d="M2770 3809 c-30 -11 -61 -25 -68 -33 -7 -7 -33 -64 -56 -127 -24 -63
-75 -199 -115 -304 -39 -104 -75 -199 -80 -210 -32 -74 -40 -114 -23 -116 63
-9 95 -3 113 19 10 14 19 29 19 34 0 6 6 24 14 41 7 18 22 55 33 82 11 29 29
55 42 61 14 7 66 11 133 10 127 -3 114 8 170 -135 20 -52 44 -101 52 -109 10
-10 37 -16 81 -17 100 -2 103 5 49 145 -25 63 -49 124 -54 135 -5 11 -19 45
-30 75 -11 30 -24 64 -29 75 -5 11 -24 58 -41 105 -18 47 -39 101 -47 120 -79
191 -70 183 -163 149z m28 -291 c36 -79 54 -136 50 -154 -2 -15 -14 -18 -71
-19 -104 -3 -107 3 -68 113 30 82 40 99 63 101 4 1 16 -18 26 -41z"/>
<path d="M4906 3823 c-3 -3 -27 -7 -53 -9 -163 -13 -258 -122 -223 -255 20
-72 58 -99 280 -202 126 -58 157 -95 155 -183 -2 -49 -36 -109 -73 -128 -40
-20 -147 -14 -173 10 -35 32 -46 65 -42 126 5 70 -7 95 -51 104 -65 12 -98
-16 -98 -81 0 -68 61 -146 140 -181 20 -8 44 -19 52 -23 23 -11 169 -5 219 9
129 35 218 157 195 268 -4 20 -8 42 -10 49 -5 25 -47 74 -87 101 -42 29 -102
58 -180 89 -130 52 -183 104 -170 166 5 25 73 112 73 93 0 -5 6 -4 13 1 6 5
37 10 67 11 42 2 60 -2 77 -17 28 -24 43 -62 36 -90 -3 -11 -2 -36 1 -55 6
-30 12 -36 40 -42 43 -7 71 8 83 43 11 38 10 53 -10 90 -20 37 -94 84 -138 88
-16 1 -32 5 -35 8 -3 3 -11 3 -18 1 -7 -3 -24 0 -38 5 -14 5 -29 7 -32 4z"/>
<path d="M247 3792 c-8 -10 -11 -127 -12 -385 0 -322 2 -374 15 -387 18 -18
135 -19 153 -1 6 6 11 62 11 145 1 95 5 139 14 148 7 7 40 13 80 14 119 2 157
12 207 56 112 99 119 268 15 362 -21 19 -58 40 -82 47 -63 18 -386 18 -401 1z
m350 -40 c58 -32 84 -159 56 -269 -15 -59 -34 -90 -68 -109 -22 -12 -151 -12
-162 0 -4 4 -8 87 -9 184 0 131 3 181 12 192 16 19 138 20 171 2z"/>
<path d="M1722 3794 c-14 -10 -16 -55 -17 -380 0 -229 4 -375 10 -388 9 -17
20 -20 78 -20 37 1 73 6 79 12 8 8 12 59 12 145 1 156 6 167 67 162 69 -6 111
-51 125 -129 19 -118 60 -185 113 -187 58 -2 80 -1 96 4 14 6 14 10 -4 44 -10
21 -27 67 -36 103 -17 61 -35 101 -72 161 -16 25 -15 27 6 50 82 85 111 170
88 259 -22 85 -84 147 -167 166 -58 13 -360 11 -378 -2z m344 -41 c11 -7 31
-33 45 -60 22 -40 25 -60 24 -123 -3 -98 -35 -177 -79 -195 -31 -12 -152 -13
-164 0 -3 3 -7 85 -7 182 -1 212 -2 210 96 208 35 -1 73 -6 85 -12z"/>
<path d="M3327 3789 c-9 -12 -12 -121 -12 -389 1 -330 3 -373 17 -384 21 -15
317 -13 376 3 86 24 148 71 228 173 32 40 57 135 57 219 2 153 -57 266 -174
339 -73 45 -119 53 -307 54 -152 2 -175 0 -185 -15z m371 -51 c173 -115 166
-572 -10 -664 -19 -10 -60 -18 -97 -20 -102 -3 -97 -23 -96 358 0 238 3 329
12 340 9 10 32 14 81 13 58 0 76 -5 110 -27z"/>
<path d="M4243 3795 c-16 -12 -17 -46 -18 -386 0 -433 -6 -407 94 -403 35 1
68 7 75 14 11 11 16 764 4 775 -12 12 -138 12 -155 0z"/>
<path d="M2440 2800 c0 -6 -5 -8 -10 -5 -6 4 -34 1 -62 -6 -72 -17 -134 -79
-143 -143 -9 -61 15 -126 58 -158 35 -26 153 -88 168 -88 19 0 108 -62 124
-86 38 -58 14 -169 -43 -198 -42 -21 -128 -13 -152 15 -24 26 -22 18 -25 103
-3 76 -16 96 -64 96 -36 0 -50 -12 -59 -46 -12 -48 -3 -80 38 -127 47 -54 109
-84 176 -88 146 -8 253 55 285 170 16 56 13 94 -12 142 -29 58 -80 92 -249
168 -25 11 -57 31 -72 44 -57 50 -36 158 35 173 4 1 8 3 10 4 1 2 24 4 52 4
70 3 87 -17 89 -101 1 -67 11 -83 52 -83 36 0 59 38 55 92 -1 23 -48 76 -81
93 -16 8 -55 16 -88 18 -32 2 -64 7 -70 11 -7 4 -12 2 -12 -4z"/>
<path d="M3535 2793 c-27 -8 -54 -15 -60 -17 -31 -7 -135 -85 -135 -101 0 -3
-8 -14 -18 -25 -19 -21 -48 -96 -56 -145 -39 -238 122 -437 354 -438 19 0 63
6 98 14 48 10 67 11 82 2 14 -9 20 -9 27 0 7 9 9 203 4 300 -1 16 -9 17 -83
13 -44 -3 -89 -8 -99 -11 -21 -7 -34 -35 -15 -35 8 0 27 -13 44 -28 28 -26 29
-31 26 -100 -3 -72 -10 -89 -49 -109 -37 -19 -110 3 -147 44 -93 102 -94 443
-2 553 33 38 60 53 103 56 75 5 111 -41 105 -132 -4 -48 -1 -58 21 -80 20 -20
32 -24 53 -20 74 18 77 111 8 194 -35 41 -77 61 -145 68 -31 3 -58 7 -61 8 -3
1 -27 -4 -55 -11z"/>
<path d="M4950 2801 c0 -5 -9 -7 -19 -4 -31 8 -126 -25 -158 -54 -70 -66 -75
-172 -12 -239 12 -13 65 -45 118 -71 191 -94 217 -119 208 -211 -7 -80 -42
-115 -117 -117 -87 -3 -124 36 -122 130 1 69 -15 95 -60 95 -62 0 -86 -66 -49
-138 52 -102 167 -143 314 -112 89 18 162 86 175 162 8 51 8 61 -1 109 -10 47
-73 110 -146 145 -52 24 -115 56 -183 91 -24 12 -40 41 -43 78 -4 47 45 99
102 108 18 3 37 8 42 12 6 3 11 1 11 -4 0 -6 3 -10 8 -10 36 6 53 -23 58 -100
3 -60 19 -81 60 -81 27 0 54 35 54 70 0 58 -79 130 -144 130 -14 0 -28 5 -32
11 -5 8 -9 8 -14 -1 -6 -9 -13 -9 -29 -1 -12 7 -21 8 -21 2z"/>
<path d="M830 2788 c-24 -9 -22 2 -24 -128 -1 -58 -5 -111 -10 -118 -4 -7 -25
-20 -47 -29 -39 -15 -60 -40 -66 -77 -5 -31 -36 -54 -58 -45 -11 4 -16 8 -11
8 5 1 0 11 -12 24 -23 25 -43 69 -49 109 -3 21 3 32 31 53 35 27 43 41 52 91
4 19 -4 34 -30 60 -28 28 -42 34 -75 34 -58 0 -109 -23 -123 -57 -6 -15 -12
-53 -13 -83 -3 -78 -2 -76 -34 -89 -77 -32 -145 -152 -137 -239 13 -125 84
-181 223 -176 46 2 84 9 98 18 27 18 71 21 80 6 10 -17 81 -50 122 -56 21 -4
111 -7 200 -8 196 -2 233 7 308 76 82 75 123 180 119 305 -3 98 -29 158 -101
230 -60 60 -84 73 -173 90 -43 8 -248 9 -270 1z m295 -58 c33 -21 81 -96 90
-140 15 -76 18 -102 18 -150 1 -146 -50 -265 -132 -309 -32 -18 -103 -21 -127
-6 -20 13 -20 20 -20 310 1 275 2 298 19 310 27 19 110 11 152 -15z m-543 -14
c33 -15 2 -97 -42 -109 -26 -7 -38 16 -35 67 3 52 25 64 77 42z m296 -228 c19
-24 22 -70 6 -105 -13 -26 -22 -33 -44 -33 -27 0 -27 0 -27 72 0 40 5 77 11
84 12 13 34 5 54 -18z m-444 -20 c6 -7 19 -29 28 -48 55 -121 71 -150 79 -150
6 0 8 -4 4 -9 -3 -5 -1 -12 5 -16 7 -4 4 -17 -7 -35 -26 -45 -67 -37 -125 25
-69 75 -86 166 -40 223 19 25 38 28 56 10z m364 -146 c10 -18 8 -84 -2 -100
-11 -18 -95 37 -103 66 -9 37 -7 59 9 76 11 12 18 11 50 -5 21 -11 41 -27 46
-37z m52 -158 c0 -6 -6 -17 -14 -23 -11 -9 -15 -8 -20 5 -10 26 -7 33 14 31
11 -1 20 -6 20 -13z"/>
<path d="M1597 2792 c-15 -2 -31 -11 -35 -20 -10 -21 -9 -668 0 -678 6 -5 143
-9 211 -5 30 2 19 21 -12 21 -49 0 -57 23 -56 169 0 72 4 133 8 137 16 17 105
7 141 -15 20 -13 36 -26 36 -31 0 -13 27 -19 28 -7 7 53 7 149 0 153 -5 3 -5
11 -1 17 4 7 -13 -5 -37 -25 -24 -21 -51 -39 -59 -39 -9 -1 -31 -2 -49 -4 -61
-4 -66 9 -67 145 0 148 -1 147 117 145 87 -1 156 -26 176 -62 9 -14 10 -14 17
6 13 42 12 71 -2 82 -13 11 -341 19 -416 11z"/>
<path d="M2943 2789 c-11 -4 -22 -13 -25 -21 -6 -20 -4 -666 3 -672 3 -4 31
-8 62 -10 42 -2 60 1 69 12 17 19 19 657 2 679 -11 16 -80 23 -111 12z"/>
<path d="M4040 2788 c-11 -4 -21 -13 -21 -20 -1 -7 -2 -157 -3 -332 -1 -211 3
-324 10 -334 6 -8 30 -15 58 -17 80 -4 81 0 81 212 0 139 3 184 12 187 15 6
45 -24 76 -74 11 -19 23 -37 26 -40 4 -3 44 -61 91 -130 46 -69 89 -130 95
-136 19 -19 43 -23 61 -9 17 12 19 36 19 331 1 176 -2 329 -7 342 -9 27 -54
31 -60 5 -2 -10 -3 -93 -3 -185 0 -93 -3 -168 -8 -168 -4 0 -5 -5 -1 -11 5 -8
1 -8 -13 0 -11 6 -58 63 -103 128 -46 65 -87 120 -92 121 -4 2 -8 8 -8 13 0 6
-18 34 -40 64 -27 36 -48 55 -63 56 -65 4 -89 4 -107 -3z"/>
<path d="M1990 2151 c-44 -33 -149 -55 -178 -37 -7 4 -12 2 -12 -7 0 -11 15
-16 55 -19 31 -1 57 1 59 7 3 7 5 7 5 0 1 -5 24 -10 52 -9 57 1 77 16 74 56
-2 29 -23 33 -55 9z"/>
</g>
</svg>
