<?xml version="1.0" encoding="utf-8"?>
<!-- Generator: Adobe Illustrator 25.0.0, SVG Export Plug-In . SVG Version: 6.00 Build 0)  -->
<svg version="1.1" xmlns="http://www.w3.org/2000/svg" xmlns:xlink="http://www.w3.org/1999/xlink" x="0px" y="0px"
	 viewBox="0 0 800 800" style="enable-background:new 0 0 800 800;" xml:space="preserve">
<style type="text/css">
	.st0{fill:#EDD6D0;}
	.st1{fill:#FFFFFF;}
	.st2{fill:#C1836C;}
</style>
<g id="INSPO">
</g>
<g id="LOGO">
	<g id="PARADIS_2_">
		<path class="st0" d="M33.89,254.48l25.14,0.18h22.5c10.55,0,18.81,3.08,24.79,9.23s8.96,13.97,8.96,23.47
			c0,10.31-3.11,18.81-9.32,25.49c-6.21,6.68-14.24,10.02-24.08,10.02H59.02v45.7H33.89V254.48z M77.83,259.4H59.02v58.54
			c0.82,0,3.25,0.03,7.29,0.09c4.04,0.06,7.59,0.09,10.63,0.09c6.09,0,10.69-3.05,13.8-9.14c3.1-6.09,4.83-13.24,5.19-21.45
			c0.23-7.03-1.26-13.47-4.48-19.34C88.23,262.33,83.69,259.4,77.83,259.4z"/>
		<path class="st0" d="M173.43,249.21l46.76,119.36h-27.07l-14.59-37.09h-37.62l-14.41,37.09L108,368l42-111l-0.65,0.12
			C161.18,254.19,169.21,251.55,173.43,249.21z M159.72,283.66l-14.24,36.56h28.65L159.72,283.66z"/>
		<path class="st0" d="M244.77,254.48l25.14,0.18h22.5c10.43,0,18.63,3.08,24.61,9.23s8.96,13.97,8.96,23.47
			c0,7.97-1.93,14.97-5.8,21.01c-3.87,6.04-9.08,10.23-15.64,12.57c4.69,1.29,8.32,3.99,10.9,8.09c2.58,4.1,4.28,8.38,5.1,12.83
			c0.82,4.46,2.22,9.29,4.22,14.5c1.99,5.22,4.69,9.29,8.09,12.22c-11.13,1.99-19.81,1.17-26.02-2.46
			c-2.58-1.52-4.57-4.63-5.98-9.32c-1.41-4.69-2.4-9.37-2.99-14.06c-0.59-4.69-2.23-9.05-4.92-13.1c-2.7-4.04-6.56-6.3-11.6-6.77
			h-11.43v45.7h-25.14V254.48z M288.54,259.4h-18.63v58.54c0.82,0,3.25,0.03,7.29,0.09c4.04,0.06,7.59,0.09,10.63,0.09
			c6.09,0,10.66-3.05,13.71-9.14c3.05-6.09,4.75-13.24,5.1-21.45c0.23-7.03-1.26-13.47-4.48-19.34
			C298.94,262.33,294.4,259.4,288.54,259.4z"/>
		<path class="st0" d="M520.87,254.48c14.65,0,27.04,5.33,37.18,16c10.13,10.67,15.21,23.79,15.21,39.38
			c0,15.82-5.13,29.56-15.38,41.22c-10.26,11.66-22.59,17.49-37,17.49h-45.7V259.4v-4.92H520.87z M516.48,259.4h-16v103.36h16
			c5.86,0,11.1-1.9,15.73-5.71c4.63-3.81,8.14-8.76,10.55-14.85c2.4-6.09,4.19-12.8,5.36-20.13c1.17-7.32,1.2-14.65,0.09-21.97
			c-1.12-7.32-2.87-14.03-5.27-20.13c-2.4-6.09-5.92-11.04-10.55-14.85C527.75,261.31,522.45,259.4,516.48,259.4z"/>
		<path class="st0" d="M605.92,254.48h25.14v114.08h-25.14V254.48z"/>
		<path class="st0" d="M705.91,252.19c9.14,0,17.08,1.55,23.82,4.66c6.74,3.11,11.16,7.76,13.27,13.97
			c1.41,4.34,0.97,8.26-1.32,11.78s-5.13,5.16-8.53,4.92c-2.93-0.23-5.36-1.29-7.29-3.16c-1.93-1.87-2.67-4.1-2.2-6.68
			c1.17-6.09,1.26-10.63,0.26-13.62c-1-2.99-3.19-5.07-6.59-6.24c-2.46-1.17-5.48-1.61-9.05-1.32c-3.58,0.29-6.97,0.94-10.2,1.93
			c-3.22,1-6.01,3.05-8.35,6.15c-2.35,3.11-3.52,6.94-3.52,11.51c0,4.46,2.69,8.26,8.09,11.43c5.39,3.16,12.86,6.68,22.41,10.55
			c9.55,3.87,17.08,7.85,22.59,11.95c5.27,3.87,8.88,8.82,10.81,14.85c1.93,6.04,1.73,13.04-0.62,21.01
			c-2.58,7.38-7.68,13.42-15.29,18.11c-7.62,4.69-17.93,7.03-30.94,7.03c-8.79,0-16.7-2.14-23.73-6.42s-11.95-9.81-14.77-16.61
			c-3.28-8.55-2.35-14.65,2.81-18.28c3.87-2.58,7.97-2.87,12.3-0.88c4.92,2.11,6.86,6.04,5.8,11.78c-0.12,0.12-0.18,0.29-0.18,0.53
			c-1.64,7.15-0.94,13.01,2.11,17.58c3.05,4.57,9.26,6.86,18.63,6.86c6.44,0,11.45-2.22,15.03-6.68c3.57-4.45,5.36-10.02,5.36-16.7
			c0-3.87-0.85-7.21-2.55-10.02c-1.7-2.81-4.34-5.3-7.91-7.47c-3.58-2.17-7.21-4.07-10.9-5.71c-3.69-1.64-8.5-3.78-14.41-6.42
			c-5.92-2.64-11.1-5.19-15.56-7.65c-4.46-2.58-7.76-6.09-9.93-10.55c-2.17-4.45-3.14-8.9-2.9-13.36c0.23-4.45,1.35-8.5,3.34-12.13
			c2.81-5.51,7.88-9.67,15.21-12.48C688.36,253.6,696.66,252.19,705.91,252.19z"/>
		<path class="st0" d="M410.33,249.03l46.76,119.36h-27.07l-14.59-37.09h-37.62l-14.41,37.09l-18.5-0.56l42-111l-0.65,0.12
			C398.09,254.01,406.12,251.37,410.33,249.03z M396.62,283.48l-14.24,36.56h28.65L396.62,283.48z"/>
	</g>
	<g id="DESIGNS_2_">
		<path class="st0" d="M153.44,400.03c12.32,0,22.74,4.75,31.27,14.24c8.52,9.49,12.79,21.17,12.79,35.04
			c0,14.08-4.31,26.31-12.93,36.68c-8.63,10.38-19,15.57-31.12,15.57H115v-97.14v-4.38H153.44z M149.74,404.41h-13.45v91.98h13.45
			c4.93,0,9.34-1.69,13.23-5.08c3.89-3.39,6.85-7.79,8.87-13.22c2.02-5.42,3.52-11.39,4.51-17.91c0.98-6.52,1.01-13.04,0.07-19.56
			c-0.94-6.52-2.42-12.49-4.43-17.91c-2.02-5.42-4.98-9.83-8.87-13.22C159.23,406.11,154.77,404.41,149.74,404.41z"/>
		<path class="st0" d="M223,400.03h66.97l0.15,21.59c-0.1-0.1-4.99-14.97-19.14-16.35c-1.95-0.19-3.97-0.55-6.14-0.55h-20.55v41.77
			c1.48,0,3.01,0.03,4.58,0.08c1.58,0.05,2.91,0.08,3.99,0.08c1.08,0,1.68,0,1.77,0c3.55,0,6.58-0.49,9.09-1.49
			c2.51-0.99,4.51-2.43,5.99-4.3c1.48-1.88,2.56-3.52,3.25-4.93c0.69-1.41,1.38-3.15,2.07-5.24c0.1-0.42,0.2-0.73,0.3-0.94
			l-0.15,19.71l0.15,19.87c-1.87-5.42-3.79-9.18-5.77-11.26c-3.45-3.75-8.43-5.63-14.93-5.63c-0.1,0-0.69,0.03-1.77,0.08
			c-1.09,0.05-2.42,0.08-3.99,0.08c-1.58,0-3.1,0-4.58,0v44.27h24.1c2.17,0,4.21-0.23,6.14-0.55c15.56-2.59,19.14-16.19,19.14-16.19
			l-0.15,21.43H223V400.03z"/>
		<path class="st0" d="M354.79,398c7.69,0,14.36,1.38,20.03,4.14c5.67,2.77,9.39,6.91,11.16,12.44c1.18,3.86,0.81,7.35-1.11,10.48
			c-1.92,3.13-4.31,4.59-7.17,4.38c-2.46-0.21-4.51-1.15-6.13-2.82c-1.63-1.67-2.24-3.65-1.85-5.94c0.98-5.42,1.06-9.46,0.22-12.12
			c-0.84-2.66-2.69-4.51-5.54-5.55c-2.07-1.04-4.61-1.43-7.61-1.17c-3.01,0.26-5.87,0.84-8.57,1.72c-2.71,0.89-5.05,2.71-7.02,5.47
			c-1.97,2.77-2.96,6.18-2.96,10.25c0,3.96,2.27,7.35,6.8,10.17c4.53,2.82,10.82,5.94,18.85,9.39c8.03,3.44,14.36,6.99,19,10.64
			c4.43,3.44,7.47,7.85,9.09,13.22c1.63,5.37,1.45,11.6-0.52,18.69c-2.17,6.57-6.46,11.94-12.86,16.11
			c-6.41,4.17-15.08,6.26-26.02,6.26c-7.39,0-14.04-1.9-19.96-5.71c-5.91-3.81-10.05-8.73-12.42-14.78
			c-2.76-7.61-1.97-13.04,2.37-16.27c3.25-2.29,6.7-2.55,10.35-0.78c4.14,1.88,5.77,5.37,4.88,10.48c-0.1,0.1-0.15,0.26-0.15,0.47
			c-1.38,6.36-0.79,11.58,1.77,15.64c2.56,4.07,7.78,6.1,15.67,6.1c5.42,0,9.63-1.98,12.64-5.94c3-3.96,4.51-8.92,4.51-14.86
			c0-3.44-0.72-6.41-2.14-8.92c-1.43-2.5-3.65-4.72-6.65-6.65c-3.01-1.93-6.06-3.62-9.17-5.08c-3.1-1.46-7.15-3.36-12.12-5.71
			c-4.98-2.35-9.34-4.62-13.08-6.81c-3.75-2.29-6.53-5.42-8.35-9.39c-1.82-3.96-2.64-7.92-2.44-11.89c0.2-3.96,1.13-7.56,2.81-10.79
			c2.37-4.9,6.63-8.6,12.79-11.11C340.03,399.25,347.01,398,354.79,398z"/>
		<path class="st0" d="M418.74,400.03h21.14v101.52h-21.14V400.03z"/>
		<path class="st0" d="M516.83,398.31c8.57,0,15.67,1.54,21.29,4.62c5.62,3.08,9.71,8.27,12.27,15.56
			c2.86,8.24,2.02,13.92-2.51,17.05c-3.25,2.29-6.8,2.45-10.64,0.47c-4.24-2.09-6.01-5.58-5.32-10.48c0-0.31,0.05-0.63,0.15-0.94
			c2.96-14.29-1.38-21.43-13.01-21.43c-4.83,0-9.02,1.38-12.57,4.15c-3.55,2.76-6.26,6.52-8.13,11.26
			c-1.87,4.75-3.25,9.78-4.14,15.1c-0.89,5.32-1.33,11.05-1.33,17.21c0,30.66,8.77,46.51,26.31,47.56c3.35,0,6.18-1.17,8.5-3.52
			c2.31-2.35,3.47-5.24,3.47-8.68v-13.61c-0.1-5.84-4.14-8.76-12.12-8.76l0.15-5.94l30.9-2.5V505h-2.96
			c-0.39-3.44-2.86-5.16-7.39-5.16c-0.99,0-2.61,0.44-4.88,1.33c-2.27,0.88-4.63,1.54-7.1,1.95c-3.06,0.42-6.16,0.63-9.31,0.63
			c-6.21,0-12.25-1.07-18.11-3.21c-5.86-2.14-11.29-5.29-16.26-9.46c-4.98-4.17-8.99-9.72-12.05-16.66
			c-3.06-6.93-4.58-14.73-4.58-23.39c0-15.23,4.68-27.82,14.04-37.78C490.86,403.29,502.64,398.31,516.83,398.31z"/>
		<path class="st0" d="M576.04,400.03h22.32l43.61,61.95v-61.95h9.61v101.52h-9.61c-5.03-7.2-12.49-18.07-22.4-32.62
			c-9.91-14.55-17.32-25.47-22.25-32.77v65.39h-21.29V400.35V400.03z"/>
		<path class="st0" d="M712.72,398c7.69,0,14.36,1.38,20.03,4.14c5.67,2.77,9.39,6.91,11.16,12.44c1.18,3.86,0.81,7.35-1.11,10.48
			c-1.92,3.13-4.31,4.59-7.17,4.38c-2.46-0.21-4.51-1.15-6.13-2.82c-1.63-1.67-2.24-3.65-1.85-5.94c0.98-5.42,1.06-9.46,0.22-12.12
			c-0.84-2.66-2.69-4.51-5.54-5.55c-2.07-1.04-4.61-1.43-7.61-1.17c-3.01,0.26-5.87,0.84-8.57,1.72c-2.71,0.89-5.05,2.71-7.02,5.47
			c-1.97,2.77-2.96,6.18-2.96,10.25c0,3.96,2.27,7.35,6.8,10.17c4.53,2.82,10.82,5.94,18.85,9.39c8.03,3.44,14.36,6.99,19,10.64
			c4.43,3.44,7.47,7.85,9.09,13.22c1.63,5.37,1.45,11.6-0.52,18.69c-2.17,6.57-6.46,11.94-12.86,16.11
			c-6.41,4.17-15.08,6.26-26.02,6.26c-7.39,0-14.04-1.9-19.96-5.71c-5.91-3.81-10.05-8.73-12.42-14.78
			c-2.76-7.61-1.97-13.04,2.37-16.27c3.25-2.29,6.7-2.55,10.35-0.78c4.14,1.88,5.77,5.37,4.88,10.48c-0.1,0.1-0.15,0.26-0.15,0.47
			c-1.38,6.36-0.79,11.58,1.77,15.64c2.56,4.07,7.78,6.1,15.67,6.1c5.42,0,9.63-1.98,12.64-5.94c3-3.96,4.51-8.92,4.51-14.86
			c0-3.44-0.72-6.41-2.14-8.92c-1.43-2.5-3.65-4.72-6.65-6.65c-3.01-1.93-6.06-3.62-9.17-5.08c-3.1-1.46-7.15-3.36-12.12-5.71
			c-4.98-2.35-9.34-4.62-13.08-6.81c-3.75-2.29-6.53-5.42-8.35-9.39c-1.82-3.96-2.64-7.92-2.44-11.89c0.2-3.96,1.13-7.56,2.81-10.79
			c2.37-4.9,6.63-8.6,12.79-11.11C697.96,399.25,704.93,398,712.72,398z"/>
	</g>
	<g id="_x26__2_">
		<path class="st1" d="M128.5,448.99c-0.42-2.98-1.38-5.31-2.86-6.98c-1.31-1.49-3.26-2.56-5.87-3.21
			c-1.56-0.39-3.15-0.56-4.77-0.51c0,8.5,0,17.82,0,26.34c2.78,0.67,5.24-0.04,6.87-0.59c2.8-0.93,4.69-3.54,6-7.08
			C128.71,454.63,128.92,451.97,128.5,448.99z"/>
		<path class="st1" d="M115.1,485.6c-0.03-0.01-0.05-0.02-0.08-0.03c0.1,4.26-0.02,8.08,0.13,12.12l2.17-1.35
			c3.86-2.98,6.26-6.15,7.19-9.5C121.51,487.34,118.37,486.93,115.1,485.6z"/>
		<path class="st2" d="M115.02,485.57c-5.91-2.42-12.24-7.81-19-16.18c0.65-1.4,1.79-4.54,3.42-9.43c1.63-4.89,7.46-1.2,10.1,1.44
			c1.86,1.86,3.72,2.81,5.45,3.23c0-8.52,0-17.84,0-26.34c-1.1,0.03-2.21,0.15-3.33,0.38c-1.96,0.47-3.77,1.21-5.45,2.23
			c-1.68,1.03-3.03,2.14-4.05,3.35c-1.03,1.21-2.05,2.82-3.07,4.82c-1.03,2-1.79,3.7-2.3,5.1c-0.51,1.4-1.19,3.31-2.03,5.73
			c-0.84,2.42-1.49,4.24-1.96,5.45c-6.7-8.94-13.04-19.64-19-32.12c8.84-2.79,14.43-7.4,16.76-13.83c1.21-3.54,1.05-6.59-0.49-9.15
			c-1.54-2.56-3.8-4.4-6.77-5.52c-2.51-0.93-5.22-1.4-8.1-1.4c-4.47,0-8.1,0.84-10.89,2.51s-4.73,3.96-5.8,6.84
			c-1.07,2.89-1.56,6.05-1.47,9.5c0.09,3.45,0.7,7.12,1.82,11.03c-7.73,2.7-13.97,6.98-18.72,12.85
			c-4.75,5.87-7.36,12.34-7.82,19.41c-0.65,8.38,1.84,15.53,7.47,21.44c5.63,5.92,12.73,8.87,21.3,8.87
			c9.78,0,17.97-3.68,24.58-11.03c6.33,7.64,12.24,12.24,17.74,13.83c4.36,1.2,8.21,0.92,11.57-0.79l0.15-0.09
			C115,497.65,115,485.65,115.02,485.57z M70.18,413.38c1.58-3.44,4.19-5.21,7.82-5.31c1.86,0,3.58,0.42,5.17,1.26
			c1.58,0.84,2.65,1.82,3.21,2.93c0.93,1.68,0.98,3.54,0.14,5.59c-0.84,2.33-2.51,4.54-5.03,6.63c-2.51,2.1-5.68,3.7-9.5,4.82
			c-0.75-1.68-1.26-2.84-1.54-3.49C68.69,420.97,68.6,416.82,70.18,413.38z M68.23,487.4c-4.47-1.21-8.29-4-11.45-8.38
			c-3.17-4.38-5.26-9.1-6.29-14.18c-1.03-5.07-0.72-10.17,0.91-15.29c1.63-5.12,4.63-8.94,9.01-11.45
			c6.24,16.85,13.83,31.29,22.77,43.3C78.05,486.7,73.07,488.71,68.23,487.4z"/>
	</g>
</g>
</svg>
